
<svg width="18" height="18" viewBox="0 0 18 18" fill="none" xmlns="http://www.w3.org/2000/svg">
<path d="M9.95817 9.95793L9.95817 16.6652C9.95817 16.9161 9.86122 17.1385 9.6673 17.3325C9.47338 17.5264 9.25095 17.6233 9 17.6233C8.74905 17.6233 8.52662 17.5264 8.3327 17.3325C8.13878 17.1385 8.04182 16.9161 8.04182 16.6652L8.04182 9.95793L1.3346 9.95793C1.08365 9.95793 0.861217 9.86097 0.6673 9.66706C0.473384 9.47314 0.376425 9.25071 0.376425 8.99976C0.376425 8.74881 0.473384 8.52637 0.6673 8.33246C0.861217 8.13854 1.08365 8.04158 1.3346 8.04158L8.04182 8.04158L8.04182 1.33436C8.04182 1.08341 8.13878 0.860973 8.3327 0.667056C8.52662 0.47314 8.74905 0.376182 9 0.376183C9.25095 0.376182 9.47338 0.47314 9.6673 0.667056C9.86122 0.860972 9.95817 1.08341 9.95817 1.33436L9.95817 8.04158H16.6654C16.9163 8.04158 17.1388 8.13854 17.3327 8.33246C17.5266 8.52637 17.6236 8.74881 17.6236 8.99976C17.6236 9.25071 17.5266 9.47314 17.3327 9.66706C17.1388 9.86097 16.9163 9.95793 16.6654 9.95793H9.95817Z" fill="#0E7094"/>
</svg>
