<svg width="101" height="101" viewBox="0 0 101 101" fill="none" xmlns="http://www.w3.org/2000/svg">
<path d="M46.1699 8C48.0944 4.66667 52.9056 4.66667 54.8301 8L89.4711 68C91.3956 71.3333 88.99 75.5 85.141 75.5H15.859C12.01 75.5 9.60436 71.3333 11.5289 68L46.1699 8Z" fill="#D35968"/>
<path d="M52.5938 54.3955H49.0195L48.2725 40.084H53.3408L52.5938 54.3955ZM48.2139 59.4053C48.2139 58.4873 48.4629 57.8428 48.9609 57.4717C49.4688 57.1006 50.0791 56.915 50.792 56.915C51.4854 56.915 52.0811 57.1006 52.5791 57.4717C53.0869 57.8428 53.3408 58.4873 53.3408 59.4053C53.3408 60.2842 53.0869 60.9189 52.5791 61.3096C52.0811 61.7002 51.4854 61.8955 50.792 61.8955C50.0791 61.8955 49.4688 61.7002 48.9609 61.3096C48.4629 60.9189 48.2139 60.2842 48.2139 59.4053Z" fill="white"/>
</svg>
