<svg width="25" height="25" viewBox="0 0 25 25" fill="none" xmlns="http://www.w3.org/2000/svg">
<rect width="25" height="25" rx="12.5" fill="#CEF8DA"/>
<path d="M13.0133 9.06972C12.5093 9.06972 12.1313 8.95572 11.8793 8.72772C11.6273 8.48772 11.5013 8.15772 11.5013 7.73772C11.5013 7.31772 11.6633 6.96972 11.9873 6.69372C12.3233 6.40572 12.7373 6.26172 13.2293 6.26172C13.6733 6.26172 14.0333 6.36972 14.3093 6.58572C14.5853 6.80172 14.7233 7.10772 14.7233 7.50372C14.7233 7.98372 14.5673 8.36772 14.2553 8.65572C13.9433 8.93172 13.5293 9.06972 13.0133 9.06972ZM11.2853 18.7357C10.9013 18.7357 10.6373 18.6577 10.4933 18.5017C10.3493 18.3457 10.2773 18.0997 10.2773 17.7637C10.2773 17.6677 10.2893 17.4997 10.3133 17.2597C10.5053 15.0637 10.8233 13.0657 11.2673 11.2657C11.3633 10.8937 11.5193 10.6357 11.7353 10.4917C11.9633 10.3357 12.3233 10.2577 12.8153 10.2577C13.3313 10.2577 13.5893 10.4677 13.5893 10.8877C13.5893 10.9477 13.5773 11.0617 13.5533 11.2297C13.0133 13.7977 12.6893 15.9517 12.5813 17.6917C12.5573 18.0757 12.4433 18.3457 12.2393 18.5017C12.0353 18.6577 11.7173 18.7357 11.2853 18.7357Z" fill="black"/>
</svg>
