<svg width="335" height="41" viewBox="0 0 335 41" fill="none" xmlns="http://www.w3.org/2000/svg">
<rect width="335" height="41" fill="#CEF8DA" fill-opacity="0.33"/>
<rect x="17" y="8" width="25" height="25" rx="12.5" fill="#CEF8DA"/>
<path d="M30.0129 17.0712C29.5089 17.0712 29.1309 16.9572 28.8789 16.7292C28.6269 16.4892 28.5009 16.1592 28.5009 15.7392C28.5009 15.3192 28.6629 14.9712 28.9869 14.6952C29.3229 14.4072 29.7369 14.2632 30.2289 14.2632C30.6729 14.2632 31.0329 14.3712 31.3089 14.5872C31.5849 14.8032 31.7229 15.1092 31.7229 15.5052C31.7229 15.9852 31.5669 16.3692 31.2549 16.6572C30.9429 16.9332 30.5289 17.0712 30.0129 17.0712ZM28.2849 26.7372C27.9009 26.7372 27.6369 26.6592 27.4929 26.5032C27.3489 26.3472 27.2769 26.1012 27.2769 25.7652C27.2769 25.6692 27.2889 25.5012 27.3129 25.2612C27.5049 23.0652 27.8229 21.0672 28.2669 19.2672C28.3629 18.8952 28.5189 18.6372 28.7349 18.4932C28.9629 18.3372 29.3229 18.2592 29.8149 18.2592C30.3309 18.2592 30.5889 18.4692 30.5889 18.8892C30.5889 18.9492 30.5769 19.0632 30.5529 19.2312C30.0129 21.7992 29.6889 23.9532 29.5809 25.6932C29.5569 26.0772 29.4429 26.3472 29.2389 26.5032C29.0349 26.6592 28.7169 26.7372 28.2849 26.7372Z" fill="black"/>
<path d="M62.4365 26H61.2676V17.0312H58.123V16.0059H65.5674V17.0312H62.4365V26ZM68.042 15.3633V18.542C68.042 18.7243 68.0374 18.9089 68.0283 19.0957C68.0192 19.278 68.0033 19.4466 67.9805 19.6016H68.0557C68.2106 19.3372 68.4066 19.1162 68.6436 18.9385C68.8851 18.7562 69.1585 18.6195 69.4639 18.5283C69.7692 18.4326 70.0928 18.3848 70.4346 18.3848C71.0361 18.3848 71.5374 18.4805 71.9385 18.6719C72.3441 18.8633 72.6471 19.1595 72.8477 19.5605C73.0527 19.9616 73.1553 20.4811 73.1553 21.1191V26H72.0342V21.1943C72.0342 20.57 71.8906 20.1029 71.6035 19.793C71.321 19.4831 70.8857 19.3281 70.2979 19.3281C69.7419 19.3281 69.2975 19.4352 68.9648 19.6494C68.6367 19.859 68.3997 20.1689 68.2539 20.5791C68.1126 20.9893 68.042 21.4906 68.042 22.083V26H66.9072V15.3633H68.042ZM78.3779 18.3711C79.016 18.3711 79.5628 18.5124 80.0186 18.7949C80.4743 19.0775 80.8229 19.474 81.0645 19.9844C81.306 20.4902 81.4268 21.0827 81.4268 21.7617V22.4658H76.252C76.2656 23.3454 76.4844 24.0153 76.9082 24.4756C77.332 24.9359 77.929 25.166 78.6992 25.166C79.1732 25.166 79.5924 25.1227 79.957 25.0361C80.3216 24.9495 80.6999 24.8219 81.0918 24.6533V25.6514C80.7135 25.82 80.3376 25.943 79.9639 26.0205C79.5947 26.098 79.1572 26.1367 78.6514 26.1367C77.9313 26.1367 77.3024 25.9909 76.7646 25.6992C76.2314 25.403 75.8167 24.9701 75.5205 24.4004C75.2243 23.8307 75.0762 23.1335 75.0762 22.3086C75.0762 21.502 75.2106 20.8047 75.4795 20.2168C75.7529 19.6243 76.1357 19.1686 76.6279 18.8496C77.1247 18.5306 77.708 18.3711 78.3779 18.3711ZM78.3643 19.3008C77.7581 19.3008 77.2751 19.499 76.915 19.8955C76.555 20.292 76.3408 20.8457 76.2725 21.5566H80.2373C80.2327 21.11 80.1621 20.7181 80.0254 20.3809C79.8932 20.0391 79.6904 19.7747 79.417 19.5879C79.1436 19.3965 78.7926 19.3008 78.3643 19.3008ZM88.2012 23.9492C88.2012 24.4277 88.0804 24.8311 87.8389 25.1592C87.6019 25.4827 87.2601 25.7266 86.8135 25.8906C86.3714 26.0547 85.8428 26.1367 85.2275 26.1367C84.7035 26.1367 84.25 26.0957 83.8672 26.0137C83.4844 25.9316 83.1494 25.8154 82.8623 25.665V24.6191C83.1676 24.7695 83.5322 24.9062 83.9561 25.0293C84.3799 25.1523 84.8128 25.2139 85.2549 25.2139C85.902 25.2139 86.3714 25.109 86.6631 24.8994C86.9548 24.6898 87.1006 24.4049 87.1006 24.0449C87.1006 23.8398 87.0413 23.6598 86.9229 23.5049C86.8089 23.3454 86.6152 23.1927 86.3418 23.0469C86.0684 22.8965 85.6901 22.7324 85.207 22.5547C84.7285 22.3724 84.3138 22.1924 83.9629 22.0146C83.6165 21.8324 83.3477 21.6113 83.1562 21.3516C82.9694 21.0918 82.876 20.7546 82.876 20.3398C82.876 19.7064 83.1312 19.221 83.6416 18.8838C84.1566 18.542 84.8311 18.3711 85.665 18.3711C86.1162 18.3711 86.5378 18.4167 86.9297 18.5078C87.3262 18.5944 87.6953 18.7129 88.0371 18.8633L87.6543 19.7725C87.3444 19.6403 87.014 19.5286 86.6631 19.4375C86.3122 19.3464 85.9544 19.3008 85.5898 19.3008C85.0658 19.3008 84.6624 19.3874 84.3799 19.5605C84.1019 19.7337 83.9629 19.9707 83.9629 20.2715C83.9629 20.5039 84.0267 20.6953 84.1543 20.8457C84.2865 20.9961 84.4961 21.1374 84.7832 21.2695C85.0703 21.4017 85.4486 21.5566 85.918 21.7344C86.3874 21.9076 86.793 22.0876 87.1348 22.2744C87.4766 22.4567 87.7386 22.68 87.9209 22.9443C88.1077 23.2041 88.2012 23.5391 88.2012 23.9492ZM92.9111 18.3711C93.5492 18.3711 94.096 18.5124 94.5518 18.7949C95.0075 19.0775 95.3561 19.474 95.5977 19.9844C95.8392 20.4902 95.96 21.0827 95.96 21.7617V22.4658H90.7852C90.7988 23.3454 91.0176 24.0153 91.4414 24.4756C91.8652 24.9359 92.4622 25.166 93.2324 25.166C93.7064 25.166 94.1257 25.1227 94.4902 25.0361C94.8548 24.9495 95.2331 24.8219 95.625 24.6533V25.6514C95.2467 25.82 94.8708 25.943 94.4971 26.0205C94.1279 26.098 93.6904 26.1367 93.1846 26.1367C92.4645 26.1367 91.8356 25.9909 91.2979 25.6992C90.7646 25.403 90.3499 24.9701 90.0537 24.4004C89.7575 23.8307 89.6094 23.1335 89.6094 22.3086C89.6094 21.502 89.7438 20.8047 90.0127 20.2168C90.2861 19.6243 90.6689 19.1686 91.1611 18.8496C91.6579 18.5306 92.2412 18.3711 92.9111 18.3711ZM92.8975 19.3008C92.2913 19.3008 91.8083 19.499 91.4482 19.8955C91.0882 20.292 90.874 20.8457 90.8057 21.5566H94.7705C94.766 21.11 94.6953 20.7181 94.5586 20.3809C94.4264 20.0391 94.2236 19.7747 93.9502 19.5879C93.6768 19.3965 93.3258 19.3008 92.8975 19.3008ZM104.19 26.1367C103.243 26.1367 102.491 25.8132 101.935 25.166C101.383 24.5189 101.107 23.5573 101.107 22.2812C101.107 20.9915 101.39 20.0186 101.955 19.3623C102.52 18.7015 103.272 18.3711 104.211 18.3711C104.607 18.3711 104.954 18.4235 105.25 18.5283C105.546 18.6331 105.801 18.7744 106.016 18.9521C106.23 19.1253 106.41 19.3236 106.556 19.5469H106.638C106.619 19.4056 106.601 19.2119 106.583 18.9658C106.565 18.7197 106.556 18.5192 106.556 18.3643V15.3633H107.69V26H106.774L106.604 24.9336H106.556C106.414 25.1569 106.234 25.3597 106.016 25.542C105.801 25.7243 105.544 25.8701 105.243 25.9795C104.947 26.0843 104.596 26.1367 104.19 26.1367ZM104.368 25.1934C105.17 25.1934 105.738 24.9655 106.07 24.5098C106.403 24.054 106.569 23.3773 106.569 22.4795V22.2744C106.569 21.3219 106.41 20.5905 106.091 20.0801C105.776 19.5697 105.202 19.3145 104.368 19.3145C103.671 19.3145 103.149 19.5833 102.803 20.1211C102.456 20.6543 102.283 21.3835 102.283 22.3086C102.283 23.2292 102.454 23.9401 102.796 24.4414C103.142 24.9427 103.666 25.1934 104.368 25.1934ZM112.981 18.3711C113.619 18.3711 114.166 18.5124 114.622 18.7949C115.078 19.0775 115.426 19.474 115.668 19.9844C115.91 20.4902 116.03 21.0827 116.03 21.7617V22.4658H110.855C110.869 23.3454 111.088 24.0153 111.512 24.4756C111.936 24.9359 112.533 25.166 113.303 25.166C113.777 25.166 114.196 25.1227 114.561 25.0361C114.925 24.9495 115.303 24.8219 115.695 24.6533V25.6514C115.317 25.82 114.941 25.943 114.567 26.0205C114.198 26.098 113.761 26.1367 113.255 26.1367C112.535 26.1367 111.906 25.9909 111.368 25.6992C110.835 25.403 110.42 24.9701 110.124 24.4004C109.828 23.8307 109.68 23.1335 109.68 22.3086C109.68 21.502 109.814 20.8047 110.083 20.2168C110.356 19.6243 110.739 19.1686 111.231 18.8496C111.728 18.5306 112.312 18.3711 112.981 18.3711ZM112.968 19.3008C112.362 19.3008 111.879 19.499 111.519 19.8955C111.159 20.292 110.944 20.8457 110.876 21.5566H114.841C114.836 21.11 114.766 20.7181 114.629 20.3809C114.497 20.0391 114.294 19.7747 114.021 19.5879C113.747 19.3965 113.396 19.3008 112.968 19.3008ZM120.378 25.207C120.565 25.207 120.756 25.1911 120.952 25.1592C121.148 25.1273 121.308 25.0885 121.431 25.043V25.9248C121.299 25.984 121.114 26.0342 120.877 26.0752C120.645 26.1162 120.417 26.1367 120.193 26.1367C119.797 26.1367 119.437 26.0684 119.113 25.9316C118.79 25.7904 118.53 25.5534 118.334 25.2207C118.143 24.888 118.047 24.4277 118.047 23.8398V19.3965H116.98V18.8428L118.054 18.3984L118.505 16.7715H119.188V18.5078H121.383V19.3965H119.188V23.8057C119.188 24.2751 119.296 24.626 119.51 24.8584C119.729 25.0908 120.018 25.207 120.378 25.207ZM125.751 18.3848C126.644 18.3848 127.307 18.5853 127.74 18.9863C128.173 19.3874 128.39 20.0277 128.39 20.9072V26H127.562L127.344 24.8926H127.289C127.079 25.166 126.861 25.3962 126.633 25.583C126.405 25.7653 126.141 25.9043 125.84 26C125.544 26.0911 125.179 26.1367 124.746 26.1367C124.29 26.1367 123.885 26.057 123.529 25.8975C123.178 25.738 122.9 25.4964 122.695 25.1729C122.495 24.8493 122.395 24.4391 122.395 23.9424C122.395 23.195 122.691 22.6208 123.283 22.2197C123.876 21.8187 124.778 21.5999 125.99 21.5635L127.282 21.5088V21.0508C127.282 20.4036 127.143 19.9502 126.865 19.6904C126.587 19.4307 126.195 19.3008 125.689 19.3008C125.298 19.3008 124.924 19.3577 124.568 19.4717C124.213 19.5856 123.876 19.7201 123.557 19.875L123.208 19.0137C123.545 18.8405 123.933 18.6924 124.37 18.5693C124.808 18.4463 125.268 18.3848 125.751 18.3848ZM127.269 22.3086L126.127 22.3564C125.193 22.3929 124.534 22.5456 124.151 22.8145C123.769 23.0833 123.577 23.4639 123.577 23.9561C123.577 24.3844 123.707 24.7012 123.967 24.9062C124.227 25.1113 124.571 25.2139 124.999 25.2139C125.664 25.2139 126.209 25.0293 126.633 24.6602C127.057 24.291 127.269 23.7373 127.269 22.999V22.3086ZM131.862 18.5078V26H130.728V18.5078H131.862ZM131.309 15.7051C131.495 15.7051 131.655 15.7666 131.787 15.8896C131.924 16.0081 131.992 16.195 131.992 16.4502C131.992 16.7008 131.924 16.8877 131.787 17.0107C131.655 17.1338 131.495 17.1953 131.309 17.1953C131.113 17.1953 130.949 17.1338 130.816 17.0107C130.689 16.8877 130.625 16.7008 130.625 16.4502C130.625 16.195 130.689 16.0081 130.816 15.8896C130.949 15.7666 131.113 15.7051 131.309 15.7051ZM135.41 26H134.269V15.3633H135.41V26ZM142.656 23.9492C142.656 24.4277 142.535 24.8311 142.294 25.1592C142.057 25.4827 141.715 25.7266 141.269 25.8906C140.826 26.0547 140.298 26.1367 139.683 26.1367C139.159 26.1367 138.705 26.0957 138.322 26.0137C137.939 25.9316 137.604 25.8154 137.317 25.665V24.6191C137.623 24.7695 137.987 24.9062 138.411 25.0293C138.835 25.1523 139.268 25.2139 139.71 25.2139C140.357 25.2139 140.826 25.109 141.118 24.8994C141.41 24.6898 141.556 24.4049 141.556 24.0449C141.556 23.8398 141.496 23.6598 141.378 23.5049C141.264 23.3454 141.07 23.1927 140.797 23.0469C140.523 22.8965 140.145 22.7324 139.662 22.5547C139.184 22.3724 138.769 22.1924 138.418 22.0146C138.072 21.8324 137.803 21.6113 137.611 21.3516C137.424 21.0918 137.331 20.7546 137.331 20.3398C137.331 19.7064 137.586 19.221 138.097 18.8838C138.612 18.542 139.286 18.3711 140.12 18.3711C140.571 18.3711 140.993 18.4167 141.385 18.5078C141.781 18.5944 142.15 18.7129 142.492 18.8633L142.109 19.7725C141.799 19.6403 141.469 19.5286 141.118 19.4375C140.767 19.3464 140.41 19.3008 140.045 19.3008C139.521 19.3008 139.118 19.3874 138.835 19.5605C138.557 19.7337 138.418 19.9707 138.418 20.2715C138.418 20.5039 138.482 20.6953 138.609 20.8457C138.742 20.9961 138.951 21.1374 139.238 21.2695C139.525 21.4017 139.904 21.5566 140.373 21.7344C140.842 21.9076 141.248 22.0876 141.59 22.2744C141.932 22.4567 142.194 22.68 142.376 22.9443C142.563 23.2041 142.656 23.5391 142.656 23.9492ZM154.216 25.9863L152.883 21.625C152.824 21.4382 152.767 21.2559 152.712 21.0781C152.662 20.8958 152.614 20.7227 152.568 20.5586C152.527 20.39 152.489 20.235 152.452 20.0938C152.42 19.9479 152.393 19.8226 152.37 19.7178H152.322C152.304 19.8226 152.279 19.9479 152.247 20.0938C152.215 20.235 152.176 20.39 152.131 20.5586C152.09 20.7272 152.044 20.9049 151.994 21.0918C151.944 21.2741 151.887 21.4587 151.823 21.6455L150.429 25.9863H149.15L147.086 18.4941H148.262L149.342 22.6299C149.415 22.9033 149.483 23.1745 149.547 23.4434C149.615 23.7077 149.672 23.9583 149.718 24.1953C149.768 24.4277 149.804 24.6305 149.827 24.8037H149.882C149.909 24.6898 149.939 24.5531 149.971 24.3936C150.007 24.234 150.046 24.0654 150.087 23.8877C150.132 23.7054 150.18 23.5254 150.23 23.3477C150.281 23.1654 150.331 22.9945 150.381 22.835L151.762 18.4941H152.985L154.318 22.8281C154.387 23.0469 154.453 23.2747 154.517 23.5117C154.585 23.7487 154.646 23.9788 154.701 24.2021C154.756 24.4209 154.795 24.6169 154.817 24.79H154.872C154.89 24.6351 154.924 24.4437 154.975 24.2158C155.025 23.988 155.082 23.7373 155.146 23.4639C155.214 23.1904 155.285 22.9124 155.357 22.6299L156.451 18.4941H157.606L155.535 25.9863H154.216ZM160.108 18.5078V26H158.974V18.5078H160.108ZM159.555 15.7051C159.742 15.7051 159.901 15.7666 160.033 15.8896C160.17 16.0081 160.238 16.195 160.238 16.4502C160.238 16.7008 160.17 16.8877 160.033 17.0107C159.901 17.1338 159.742 17.1953 159.555 17.1953C159.359 17.1953 159.195 17.1338 159.062 17.0107C158.935 16.8877 158.871 16.7008 158.871 16.4502C158.871 16.195 158.935 16.0081 159.062 15.8896C159.195 15.7666 159.359 15.7051 159.555 15.7051ZM163.656 26H162.515V15.3633H163.656V26ZM167.197 26H166.056V15.3633H167.197V26ZM174.368 15.3633V18.0225C174.368 18.3278 174.359 18.624 174.341 18.9111C174.327 19.1982 174.316 19.4215 174.307 19.5811H174.368C174.573 19.2438 174.869 18.959 175.257 18.7266C175.644 18.4941 176.139 18.3779 176.74 18.3779C177.679 18.3779 178.426 18.7038 178.982 19.3555C179.543 20.0026 179.823 20.9665 179.823 22.2471C179.823 23.0902 179.696 23.8011 179.44 24.3799C179.185 24.9587 178.825 25.3962 178.36 25.6924C177.896 25.9886 177.346 26.1367 176.713 26.1367C176.12 26.1367 175.633 26.0273 175.25 25.8086C174.872 25.5853 174.58 25.3141 174.375 24.9951H174.286L174.054 26H173.233V15.3633H174.368ZM176.556 19.3281C176.013 19.3281 175.583 19.4352 175.264 19.6494C174.945 19.859 174.715 20.1781 174.573 20.6064C174.437 21.0303 174.368 21.568 174.368 22.2197V22.2812C174.368 23.2246 174.525 23.9469 174.84 24.4482C175.154 24.945 175.726 25.1934 176.556 25.1934C177.253 25.1934 177.775 24.9382 178.121 24.4277C178.472 23.9173 178.647 23.1882 178.647 22.2402C178.647 21.2741 178.474 20.5472 178.128 20.0596C177.786 19.5719 177.262 19.3281 176.556 19.3281ZM184.69 18.3711C185.328 18.3711 185.875 18.5124 186.331 18.7949C186.787 19.0775 187.135 19.474 187.377 19.9844C187.618 20.4902 187.739 21.0827 187.739 21.7617V22.4658H182.564C182.578 23.3454 182.797 24.0153 183.221 24.4756C183.645 24.9359 184.242 25.166 185.012 25.166C185.486 25.166 185.905 25.1227 186.27 25.0361C186.634 24.9495 187.012 24.8219 187.404 24.6533V25.6514C187.026 25.82 186.65 25.943 186.276 26.0205C185.907 26.098 185.47 26.1367 184.964 26.1367C184.244 26.1367 183.615 25.9909 183.077 25.6992C182.544 25.403 182.129 24.9701 181.833 24.4004C181.537 23.8307 181.389 23.1335 181.389 22.3086C181.389 21.502 181.523 20.8047 181.792 20.2168C182.065 19.6243 182.448 19.1686 182.94 18.8496C183.437 18.5306 184.021 18.3711 184.69 18.3711ZM184.677 19.3008C184.071 19.3008 183.588 19.499 183.228 19.8955C182.868 20.292 182.653 20.8457 182.585 21.5566H186.55C186.545 21.11 186.475 20.7181 186.338 20.3809C186.206 20.0391 186.003 19.7747 185.729 19.5879C185.456 19.3965 185.105 19.3008 184.677 19.3008ZM194.951 26L192.107 18.5078H193.324L194.972 23.04C195.086 23.3499 195.202 23.6917 195.32 24.0654C195.439 24.4391 195.521 24.7399 195.566 24.9678H195.614C195.669 24.7399 195.76 24.4391 195.888 24.0654C196.015 23.6872 196.132 23.3454 196.236 23.04L197.884 18.5078H199.101L196.25 26H194.951ZM201.438 18.5078V26H200.304V18.5078H201.438ZM200.885 15.7051C201.072 15.7051 201.231 15.7666 201.363 15.8896C201.5 16.0081 201.568 16.195 201.568 16.4502C201.568 16.7008 201.5 16.8877 201.363 17.0107C201.231 17.1338 201.072 17.1953 200.885 17.1953C200.689 17.1953 200.525 17.1338 200.393 17.0107C200.265 16.8877 200.201 16.7008 200.201 16.4502C200.201 16.195 200.265 16.0081 200.393 15.8896C200.525 15.7666 200.689 15.7051 200.885 15.7051ZM208.691 23.9492C208.691 24.4277 208.571 24.8311 208.329 25.1592C208.092 25.4827 207.75 25.7266 207.304 25.8906C206.862 26.0547 206.333 26.1367 205.718 26.1367C205.194 26.1367 204.74 26.0957 204.357 26.0137C203.975 25.9316 203.64 25.8154 203.353 25.665V24.6191C203.658 24.7695 204.022 24.9062 204.446 25.0293C204.87 25.1523 205.303 25.2139 205.745 25.2139C206.392 25.2139 206.862 25.109 207.153 24.8994C207.445 24.6898 207.591 24.4049 207.591 24.0449C207.591 23.8398 207.532 23.6598 207.413 23.5049C207.299 23.3454 207.105 23.1927 206.832 23.0469C206.559 22.8965 206.18 22.7324 205.697 22.5547C205.219 22.3724 204.804 22.1924 204.453 22.0146C204.107 21.8324 203.838 21.6113 203.646 21.3516C203.46 21.0918 203.366 20.7546 203.366 20.3398C203.366 19.7064 203.621 19.221 204.132 18.8838C204.647 18.542 205.321 18.3711 206.155 18.3711C206.606 18.3711 207.028 18.4167 207.42 18.5078C207.816 18.5944 208.186 18.7129 208.527 18.8633L208.145 19.7725C207.835 19.6403 207.504 19.5286 207.153 19.4375C206.802 19.3464 206.445 19.3008 206.08 19.3008C205.556 19.3008 205.153 19.3874 204.87 19.5605C204.592 19.7337 204.453 19.9707 204.453 20.2715C204.453 20.5039 204.517 20.6953 204.645 20.8457C204.777 20.9961 204.986 21.1374 205.273 21.2695C205.561 21.4017 205.939 21.5566 206.408 21.7344C206.878 21.9076 207.283 22.0876 207.625 22.2744C207.967 22.4567 208.229 22.68 208.411 22.9443C208.598 23.2041 208.691 23.5391 208.691 23.9492ZM211.651 18.5078V26H210.517V18.5078H211.651ZM211.098 15.7051C211.285 15.7051 211.444 15.7666 211.576 15.8896C211.713 16.0081 211.781 16.195 211.781 16.4502C211.781 16.7008 211.713 16.8877 211.576 17.0107C211.444 17.1338 211.285 17.1953 211.098 17.1953C210.902 17.1953 210.738 17.1338 210.605 17.0107C210.478 16.8877 210.414 16.7008 210.414 16.4502C210.414 16.195 210.478 16.0081 210.605 15.8896C210.738 15.7666 210.902 15.7051 211.098 15.7051ZM215.192 15.3633V18.0225C215.192 18.3278 215.183 18.624 215.165 18.9111C215.151 19.1982 215.14 19.4215 215.131 19.5811H215.192C215.397 19.2438 215.694 18.959 216.081 18.7266C216.468 18.4941 216.963 18.3779 217.564 18.3779C218.503 18.3779 219.251 18.7038 219.807 19.3555C220.367 20.0026 220.647 20.9665 220.647 22.2471C220.647 23.0902 220.52 23.8011 220.265 24.3799C220.009 24.9587 219.649 25.3962 219.185 25.6924C218.72 25.9886 218.171 26.1367 217.537 26.1367C216.945 26.1367 216.457 26.0273 216.074 25.8086C215.696 25.5853 215.404 25.3141 215.199 24.9951H215.11L214.878 26H214.058V15.3633H215.192ZM217.38 19.3281C216.838 19.3281 216.407 19.4352 216.088 19.6494C215.769 19.859 215.539 20.1781 215.397 20.6064C215.261 21.0303 215.192 21.568 215.192 22.2197V22.2812C215.192 23.2246 215.35 23.9469 215.664 24.4482C215.979 24.945 216.55 25.1934 217.38 25.1934C218.077 25.1934 218.599 24.9382 218.945 24.4277C219.296 23.9173 219.472 23.1882 219.472 22.2402C219.472 21.2741 219.299 20.5472 218.952 20.0596C218.61 19.5719 218.086 19.3281 217.38 19.3281ZM223.771 26H222.63V15.3633H223.771V26ZM229.056 18.3711C229.694 18.3711 230.241 18.5124 230.696 18.7949C231.152 19.0775 231.501 19.474 231.742 19.9844C231.984 20.4902 232.104 21.0827 232.104 21.7617V22.4658H226.93C226.943 23.3454 227.162 24.0153 227.586 24.4756C228.01 24.9359 228.607 25.166 229.377 25.166C229.851 25.166 230.27 25.1227 230.635 25.0361C230.999 24.9495 231.378 24.8219 231.77 24.6533V25.6514C231.391 25.82 231.015 25.943 230.642 26.0205C230.272 26.098 229.835 26.1367 229.329 26.1367C228.609 26.1367 227.98 25.9909 227.442 25.6992C226.909 25.403 226.494 24.9701 226.198 24.4004C225.902 23.8307 225.754 23.1335 225.754 22.3086C225.754 21.502 225.888 20.8047 226.157 20.2168C226.431 19.6243 226.813 19.1686 227.306 18.8496C227.802 18.5306 228.386 18.3711 229.056 18.3711ZM229.042 19.3008C228.436 19.3008 227.953 19.499 227.593 19.8955C227.233 20.292 227.019 20.8457 226.95 21.5566H230.915C230.91 21.11 230.84 20.7181 230.703 20.3809C230.571 20.0391 230.368 19.7747 230.095 19.5879C229.821 19.3965 229.47 19.3008 229.042 19.3008ZM240.089 25.207C240.276 25.207 240.467 25.1911 240.663 25.1592C240.859 25.1273 241.019 25.0885 241.142 25.043V25.9248C241.009 25.984 240.825 26.0342 240.588 26.0752C240.355 26.1162 240.128 26.1367 239.904 26.1367C239.508 26.1367 239.148 26.0684 238.824 25.9316C238.501 25.7904 238.241 25.5534 238.045 25.2207C237.854 24.888 237.758 24.4277 237.758 23.8398V19.3965H236.691V18.8428L237.765 18.3984L238.216 16.7715H238.899V18.5078H241.094V19.3965H238.899V23.8057C238.899 24.2751 239.007 24.626 239.221 24.8584C239.439 25.0908 239.729 25.207 240.089 25.207ZM249.119 22.2402C249.119 22.8555 249.039 23.4046 248.88 23.8877C248.72 24.3708 248.49 24.7786 248.189 25.1113C247.889 25.444 247.524 25.6992 247.096 25.877C246.672 26.0501 246.191 26.1367 245.653 26.1367C245.152 26.1367 244.692 26.0501 244.272 25.877C243.858 25.6992 243.498 25.444 243.192 25.1113C242.892 24.7786 242.657 24.3708 242.488 23.8877C242.324 23.4046 242.242 22.8555 242.242 22.2402C242.242 21.4199 242.381 20.7227 242.659 20.1484C242.937 19.5697 243.334 19.1299 243.849 18.8291C244.368 18.5238 244.986 18.3711 245.701 18.3711C246.385 18.3711 246.982 18.5238 247.492 18.8291C248.007 19.1344 248.406 19.5765 248.688 20.1553C248.976 20.7295 249.119 21.4245 249.119 22.2402ZM243.418 22.2402C243.418 22.8418 243.498 23.3636 243.657 23.8057C243.817 24.2477 244.063 24.5895 244.396 24.8311C244.728 25.0726 245.157 25.1934 245.681 25.1934C246.2 25.1934 246.626 25.0726 246.959 24.8311C247.296 24.5895 247.545 24.2477 247.704 23.8057C247.864 23.3636 247.943 22.8418 247.943 22.2402C247.943 21.6432 247.864 21.1283 247.704 20.6953C247.545 20.2578 247.299 19.9206 246.966 19.6836C246.633 19.4466 246.202 19.3281 245.674 19.3281C244.895 19.3281 244.323 19.5856 243.958 20.1006C243.598 20.6156 243.418 21.3288 243.418 22.2402ZM257.603 18.3711C258.241 18.3711 258.787 18.5124 259.243 18.7949C259.699 19.0775 260.048 19.474 260.289 19.9844C260.531 20.4902 260.651 21.0827 260.651 21.7617V22.4658H255.477C255.49 23.3454 255.709 24.0153 256.133 24.4756C256.557 24.9359 257.154 25.166 257.924 25.166C258.398 25.166 258.817 25.1227 259.182 25.0361C259.546 24.9495 259.924 24.8219 260.316 24.6533V25.6514C259.938 25.82 259.562 25.943 259.188 26.0205C258.819 26.098 258.382 26.1367 257.876 26.1367C257.156 26.1367 256.527 25.9909 255.989 25.6992C255.456 25.403 255.041 24.9701 254.745 24.4004C254.449 23.8307 254.301 23.1335 254.301 22.3086C254.301 21.502 254.435 20.8047 254.704 20.2168C254.978 19.6243 255.36 19.1686 255.853 18.8496C256.349 18.5306 256.933 18.3711 257.603 18.3711ZM257.589 19.3008C256.983 19.3008 256.5 19.499 256.14 19.8955C255.78 20.292 255.565 20.8457 255.497 21.5566H259.462C259.457 21.11 259.387 20.7181 259.25 20.3809C259.118 20.0391 258.915 19.7747 258.642 19.5879C258.368 19.3965 258.017 19.3008 257.589 19.3008ZM264.227 26L261.383 18.5078H262.6L264.247 23.04C264.361 23.3499 264.477 23.6917 264.596 24.0654C264.714 24.4391 264.796 24.7399 264.842 24.9678H264.89C264.944 24.7399 265.035 24.4391 265.163 24.0654C265.291 23.6872 265.407 23.3454 265.512 23.04L267.159 18.5078H268.376L265.525 26H264.227ZM272.464 18.3711C273.102 18.3711 273.649 18.5124 274.104 18.7949C274.56 19.0775 274.909 19.474 275.15 19.9844C275.392 20.4902 275.513 21.0827 275.513 21.7617V22.4658H270.338C270.352 23.3454 270.57 24.0153 270.994 24.4756C271.418 24.9359 272.015 25.166 272.785 25.166C273.259 25.166 273.678 25.1227 274.043 25.0361C274.408 24.9495 274.786 24.8219 275.178 24.6533V25.6514C274.799 25.82 274.424 25.943 274.05 26.0205C273.681 26.098 273.243 26.1367 272.737 26.1367C272.017 26.1367 271.388 25.9909 270.851 25.6992C270.317 25.403 269.903 24.9701 269.606 24.4004C269.31 23.8307 269.162 23.1335 269.162 22.3086C269.162 21.502 269.297 20.8047 269.565 20.2168C269.839 19.6243 270.222 19.1686 270.714 18.8496C271.211 18.5306 271.794 18.3711 272.464 18.3711ZM272.45 19.3008C271.844 19.3008 271.361 19.499 271.001 19.8955C270.641 20.292 270.427 20.8457 270.358 21.5566H274.323C274.319 21.11 274.248 20.7181 274.111 20.3809C273.979 20.0391 273.776 19.7747 273.503 19.5879C273.229 19.3965 272.879 19.3008 272.45 19.3008ZM280.845 18.3711C280.995 18.3711 281.152 18.3802 281.316 18.3984C281.48 18.4121 281.626 18.4326 281.754 18.46L281.61 19.5127C281.487 19.4808 281.351 19.4557 281.2 19.4375C281.05 19.4193 280.909 19.4102 280.776 19.4102C280.476 19.4102 280.191 19.4717 279.922 19.5947C279.658 19.7132 279.425 19.8864 279.225 20.1143C279.024 20.3376 278.867 20.6087 278.753 20.9277C278.639 21.2422 278.582 21.5931 278.582 21.9805V26H277.44V18.5078H278.384L278.507 19.8887H278.555C278.71 19.6107 278.896 19.3577 279.115 19.1299C279.334 18.8975 279.587 18.7129 279.874 18.5762C280.166 18.4395 280.489 18.3711 280.845 18.3711ZM281.986 18.5078H283.203L284.857 22.8555C284.953 23.1107 285.042 23.3568 285.124 23.5938C285.206 23.8262 285.279 24.0495 285.343 24.2637C285.407 24.4779 285.457 24.6852 285.493 24.8857H285.541C285.605 24.6579 285.696 24.3594 285.814 23.9902C285.933 23.6165 286.061 23.236 286.197 22.8486L287.763 18.5078H288.986L285.726 27.1006C285.552 27.5609 285.35 27.9619 285.117 28.3037C284.889 28.6455 284.611 28.9076 284.283 29.0898C283.955 29.2767 283.559 29.3701 283.094 29.3701C282.88 29.3701 282.69 29.3564 282.526 29.3291C282.362 29.3063 282.221 29.279 282.103 29.2471V28.3379C282.203 28.3607 282.324 28.3812 282.465 28.3994C282.611 28.4176 282.761 28.4268 282.916 28.4268C283.199 28.4268 283.442 28.3721 283.647 28.2627C283.857 28.1579 284.037 28.0029 284.188 27.7979C284.338 27.5928 284.468 27.349 284.577 27.0664L284.987 26.0137L281.986 18.5078ZM296.643 22.2402C296.643 22.8555 296.563 23.4046 296.403 23.8877C296.244 24.3708 296.014 24.7786 295.713 25.1113C295.412 25.444 295.048 25.6992 294.619 25.877C294.195 26.0501 293.715 26.1367 293.177 26.1367C292.675 26.1367 292.215 26.0501 291.796 25.877C291.381 25.6992 291.021 25.444 290.716 25.1113C290.415 24.7786 290.18 24.3708 290.012 23.8877C289.848 23.4046 289.766 22.8555 289.766 22.2402C289.766 21.4199 289.905 20.7227 290.183 20.1484C290.461 19.5697 290.857 19.1299 291.372 18.8291C291.892 18.5238 292.509 18.3711 293.225 18.3711C293.908 18.3711 294.505 18.5238 295.016 18.8291C295.531 19.1344 295.929 19.5765 296.212 20.1553C296.499 20.7295 296.643 21.4245 296.643 22.2402ZM290.941 22.2402C290.941 22.8418 291.021 23.3636 291.181 23.8057C291.34 24.2477 291.586 24.5895 291.919 24.8311C292.252 25.0726 292.68 25.1934 293.204 25.1934C293.724 25.1934 294.15 25.0726 294.482 24.8311C294.82 24.5895 295.068 24.2477 295.228 23.8057C295.387 23.3636 295.467 22.8418 295.467 22.2402C295.467 21.6432 295.387 21.1283 295.228 20.6953C295.068 20.2578 294.822 19.9206 294.489 19.6836C294.157 19.4466 293.726 19.3281 293.197 19.3281C292.418 19.3281 291.846 19.5856 291.481 20.1006C291.121 20.6156 290.941 21.3288 290.941 22.2402ZM302.152 18.3711C303.041 18.3711 303.713 18.5898 304.169 19.0273C304.625 19.4603 304.853 20.1576 304.853 21.1191V26H303.731V21.1943C303.731 20.57 303.588 20.1029 303.301 19.793C303.018 19.4831 302.583 19.3281 301.995 19.3281C301.166 19.3281 300.582 19.5628 300.245 20.0322C299.908 20.5016 299.739 21.1829 299.739 22.0762V26H298.604V18.5078H299.521L299.691 19.5879H299.753C299.912 19.3236 300.115 19.1025 300.361 18.9248C300.607 18.7425 300.883 18.6058 301.188 18.5146C301.494 18.4189 301.815 18.3711 302.152 18.3711ZM310.075 18.3711C310.713 18.3711 311.26 18.5124 311.716 18.7949C312.172 19.0775 312.52 19.474 312.762 19.9844C313.003 20.4902 313.124 21.0827 313.124 21.7617V22.4658H307.949C307.963 23.3454 308.182 24.0153 308.605 24.4756C309.029 24.9359 309.626 25.166 310.396 25.166C310.87 25.166 311.29 25.1227 311.654 25.0361C312.019 24.9495 312.397 24.8219 312.789 24.6533V25.6514C312.411 25.82 312.035 25.943 311.661 26.0205C311.292 26.098 310.854 26.1367 310.349 26.1367C309.629 26.1367 309 25.9909 308.462 25.6992C307.929 25.403 307.514 24.9701 307.218 24.4004C306.922 23.8307 306.773 23.1335 306.773 22.3086C306.773 21.502 306.908 20.8047 307.177 20.2168C307.45 19.6243 307.833 19.1686 308.325 18.8496C308.822 18.5306 309.405 18.3711 310.075 18.3711ZM310.062 19.3008C309.455 19.3008 308.972 19.499 308.612 19.8955C308.252 20.292 308.038 20.8457 307.97 21.5566H311.935C311.93 21.11 311.859 20.7181 311.723 20.3809C311.59 20.0391 311.388 19.7747 311.114 19.5879C310.841 19.3965 310.49 19.3008 310.062 19.3008ZM314.881 25.2891C314.881 24.9701 314.958 24.7445 315.113 24.6123C315.268 24.4756 315.457 24.4072 315.681 24.4072C315.913 24.4072 316.109 24.4756 316.269 24.6123C316.428 24.7445 316.508 24.9701 316.508 25.2891C316.508 25.6035 316.428 25.8337 316.269 25.9795C316.109 26.1208 315.913 26.1914 315.681 26.1914C315.457 26.1914 315.268 26.1208 315.113 25.9795C314.958 25.8337 314.881 25.6035 314.881 25.2891Z" fill="black"/>
</svg>
