<svg width="18" height="18" viewBox="0 0 18 18" fill="none" xmlns="http://www.w3.org/2000/svg">
<path d="M9.95817 9.95817L9.95817 16.6654C9.95817 16.9163 9.86122 17.1388 9.6673 17.3327C9.47338 17.5266 9.25095 17.6236 9 17.6236C8.74905 17.6236 8.52662 17.5266 8.3327 17.3327C8.13878 17.1388 8.04182 16.9163 8.04182 16.6654L8.04182 9.95817L1.3346 9.95817C1.08365 9.95817 0.861217 9.86122 0.6673 9.6673C0.473384 9.47338 0.376425 9.25095 0.376425 9C0.376425 8.74905 0.473384 8.52662 0.6673 8.3327C0.861217 8.13878 1.08365 8.04183 1.3346 8.04183L8.04182 8.04183L8.04182 1.3346C8.04182 1.08365 8.13878 0.861217 8.3327 0.6673C8.52662 0.473385 8.74905 0.376426 9 0.376427C9.25095 0.376427 9.47338 0.473384 9.6673 0.6673C9.86122 0.861217 9.95817 1.08365 9.95817 1.3346L9.95817 8.04183H16.6654C16.9163 8.04183 17.1388 8.13878 17.3327 8.3327C17.5266 8.52662 17.6236 8.74905 17.6236 9C17.6236 9.25095 17.5266 9.47338 17.3327 9.6673C17.1388 9.86122 16.9163 9.95817 16.6654 9.95817H9.95817Z" fill="white"/>
</svg>
