<svg width="23" height="23" viewBox="0 0 23 23" fill="none" xmlns="http://www.w3.org/2000/svg">
<path d="M13.2894 5.35581C13.2895 5.59087 13.2433 5.82365 13.1534 6.04084C13.0635 6.25804 12.9317 6.45541 12.7656 6.62168C12.5994 6.78795 12.4021 6.91986 12.185 7.00988C11.9678 7.09991 11.7351 7.14628 11.5 7.14636C11.265 7.14643 11.0322 7.10021 10.815 7.01032C10.5978 6.92044 10.4004 6.78865 10.2342 6.62249C10.0679 6.45633 9.93597 6.25905 9.84595 6.04191C9.75592 5.82477 9.70955 5.59202 9.70947 5.35696C9.70932 4.88223 9.89776 4.42688 10.2333 4.09108C10.5689 3.75529 11.0241 3.56656 11.4989 3.56641C11.9736 3.56625 12.429 3.75469 12.7647 4.09027C13.1005 4.42585 13.2893 4.88108 13.2894 5.35581Z" fill="black"/>
<path d="M11.4998 13.2897C12.4881 13.2897 13.2892 12.4886 13.2892 11.5003C13.2892 10.5121 12.4881 9.71094 11.4998 9.71094C10.5116 9.71094 9.71045 10.5121 9.71045 11.5003C9.71045 12.4886 10.5116 13.2897 11.4998 13.2897Z" fill="black"/>
<path d="M11.4998 19.4343C12.4881 19.4343 13.2892 18.6331 13.2892 17.6449C13.2892 16.6566 12.4881 15.8555 11.4998 15.8555C10.5116 15.8555 9.71045 16.6566 9.71045 17.6449C9.71045 18.6331 10.5116 19.4343 11.4998 19.4343Z" fill="black"/>
</svg>
